<?xml version="1.0" standalone="no"?>
<!DOCTYPE svg PUBLIC "-//W3C//DTD SVG 20010904//EN"
 "http://www.w3.org/TR/2001/REC-SVG-20010904/DTD/svg10.dtd">
<svg version="1.0" xmlns="http://www.w3.org/2000/svg"
 width="900.000000pt" height="1140.000000pt" viewBox="0 0 900.000000 1140.000000"
 preserveAspectRatio="xMidYMid meet">
<metadata>
Created by potrace 1.16, written by Peter Selinger 2001-2019
</metadata>
<g transform="translate(0.000000,1140.000000) scale(0.100000,-0.100000)"
fill="#000000" stroke="none">
<path d="M450 11367 c-107 -32 -184 -79 -270 -166 -83 -83 -139 -177 -165
-277 -13 -52 -15 -645 -15 -5452 l0 -5394 34 -34 34 -34 4432 0 4432 0 34 34
34 34 0 5394 c0 4807 -2 5400 -15 5452 -26 100 -82 194 -165 277 -86 87 -172
139 -280 168 l-75 21 -3970 -1 -3970 0 -75 -22z m8033 -258 c116 -39 209 -133
243 -245 12 -40 14 -815 14 -5321 l0 -5273 -4240 0 -4240 0 0 5273 c0 4506 2
5281 14 5321 34 111 126 206 241 245 l60 20 3923 1 3923 0 62 -21z"/>
<path d="M1312 10650 c-251 -66 -435 -274 -471 -533 -14 -102 -15 -1427 -1
-1478 5 -19 24 -48 41 -65 l30 -29 3589 0 3589 0 30 29 c17 17 36 46 41 65 14
51 13 1376 -1 1478 -36 261 -220 468 -475 533 -76 20 -124 20 -3188 19 -3036
0 -3113 -1 -3184 -19z m6350 -268 c81 -33 160 -108 200 -190 l33 -67 3 -662 2
-663 -3400 0 -3400 0 2 663 3 662 27 57 c31 67 95 140 153 173 97 57 -119 54
3235 52 l3085 -2 57 -23z"/>
<path d="M911 8052 c-19 -9 -44 -30 -55 -45 -21 -28 -21 -33 -21 -1005 0
-1064 -3 -1005 58 -1042 31 -19 59 -20 1005 -20 850 0 977 2 1002 15 63 33 60
-22 60 1053 l0 979 -22 28 c-45 57 -6 55 -1040 55 -888 0 -955 -1 -987 -18z
m1789 -1052 l0 -800 -800 0 -800 0 0 800 0 800 800 0 800 0 0 -800z"/>
<path d="M3511 8052 c-19 -9 -44 -30 -55 -45 -21 -28 -21 -33 -21 -1005 0
-943 1 -978 19 -1005 41 -60 -13 -57 1046 -57 1059 0 1005 -3 1046 57 18 27
19 62 19 1005 0 972 0 977 -21 1005 -11 15 -36 36 -55 45 -32 17 -100 18 -989
18 -889 0 -957 -1 -989 -18z m1789 -1052 l0 -800 -800 0 -800 0 0 800 0 800
800 0 800 0 0 -800z"/>
<path d="M6114 8056 c-17 -8 -40 -26 -52 -41 l-22 -28 0 -979 c0 -1075 -3
-1020 60 -1053 25 -13 152 -15 1002 -15 946 0 974 1 1005 20 61 37 58 -22 58
1042 0 972 0 977 -21 1005 -11 15 -36 36 -55 45 -32 17 -99 18 -989 18 -777
-1 -961 -3 -986 -14z m1786 -1056 l0 -800 -800 0 -800 0 0 800 0 800 800 0
800 0 0 -800z"/>
<path d="M893 5440 c-61 -37 -58 22 -58 -1042 0 -972 0 -977 21 -1005 11 -15
36 -36 55 -45 32 -17 99 -18 987 -18 1034 0 995 -2 1040 55 l22 28 0 979 c0
1075 3 1020 -60 1053 -25 13 -152 15 -1002 15 -946 0 -974 -1 -1005 -20z
m1807 -1040 l0 -800 -800 0 -800 0 0 800 0 800 800 0 800 0 0 -800z"/>
<path d="M3499 5445 c-14 -8 -35 -27 -45 -42 -18 -27 -19 -63 -19 -1005 0
-972 0 -977 21 -1005 11 -15 36 -36 55 -45 32 -17 100 -18 989 -18 889 0 957
1 989 18 19 9 44 30 55 45 21 28 21 33 21 1005 0 943 -1 978 -19 1005 -41 60
14 57 -1048 57 -820 -1 -977 -3 -999 -15z m1801 -1045 l0 -800 -800 0 -800 0
0 800 0 800 800 0 800 0 0 -800z"/>
<path d="M6098 5444 c-62 -33 -58 145 -58 -2349 0 -2128 1 -2279 17 -2306 37
-62 -13 -59 1048 -59 1054 0 1000 -3 1041 57 19 27 19 85 19 2308 0 1865 -2
2284 -13 2303 -7 13 -28 32 -45 42 -31 19 -59 20 -1007 20 -843 -1 -979 -3
-1002 -16z m1802 -2349 l0 -2105 -800 0 -800 0 0 2105 0 2105 800 0 800 0 0
-2105z"/>
<path d="M914 2850 c-35 -14 -72 -67 -79 -113 -3 -23 -5 -463 -3 -977 3 -872
4 -937 21 -967 36 -67 -24 -63 1042 -63 1061 0 1011 -3 1048 59 16 27 17 103
17 1009 0 978 0 979 -21 1006 -46 59 9 56 -1041 55 -530 0 -972 -4 -984 -9z
m1786 -1055 l0 -805 -800 0 -800 0 0 805 0 805 800 0 800 0 0 -805z"/>
<path d="M3514 2850 c-39 -16 -72 -67 -79 -122 -3 -29 -5 -469 -3 -978 3
-1014 0 -961 63 -1000 32 -20 54 -20 1005 -20 951 0 973 0 1005 20 63 39 60
-14 63 1000 2 509 0 949 -3 979 -5 41 -14 61 -40 90 l-33 36 -979 2 c-538 1
-987 -2 -999 -7z m1786 -1055 l0 -805 -800 0 -800 0 0 805 0 805 800 0 800 0
0 -805z"/>
</g>
</svg>
