<?xml version="1.0" standalone="no"?>
<!DOCTYPE svg PUBLIC "-//W3C//DTD SVG 20010904//EN"
 "http://www.w3.org/TR/2001/REC-SVG-20010904/DTD/svg10.dtd">
<svg version="1.0" xmlns="http://www.w3.org/2000/svg"
 width="1140.000000pt" height="730.000000pt" viewBox="0 0 1140.000000 730.000000"
 preserveAspectRatio="xMidYMid meet">
<metadata>
Created by potrace 1.16, written by Peter Selinger 2001-2019
</metadata>
<g transform="translate(0.000000,730.000000) scale(0.100000,-0.100000)"
fill="#000000" stroke="none">
<path d="M84 7276 c-17 -7 -40 -26 -52 -41 l-22 -28 0 -2223 0 -2222 26 -31
c14 -17 42 -35 62 -41 50 -13 1593 -14 1643 0 53 15 73 44 111 161 l34 105
194 -224 c1432 -1652 2342 -2413 3120 -2610 96 -25 121 -27 300 -26 184 0 200
1 285 27 50 15 132 48 182 73 l93 46 57 -52 c64 -57 188 -121 273 -141 71 -17
229 -17 300 0 30 7 93 31 139 53 158 75 296 247 332 415 7 32 14 60 15 62 1 1
18 -8 36 -22 18 -14 63 -40 99 -57 291 -136 646 -27 814 249 53 88 78 173 83
284 4 95 5 98 26 93 56 -17 194 -18 274 -3 127 24 222 75 312 166 155 156 218
360 176 571 -25 127 -77 224 -197 363 -55 66 -97 122 -93 127 15 13 837 511
839 508 1 -2 10 -28 20 -58 21 -67 47 -97 94 -110 55 -15 1606 -12 1651 3 19
7 44 27 57 46 l23 34 0 2217 0 2217 -22 28 c-40 51 -69 56 -245 45 -547 -35
-1101 -107 -1738 -226 -359 -67 -903 -184 -958 -206 -40 -16 -70 -63 -71 -112
0 -31 66 -270 101 -363 3 -7 -51 7 -120 32 -435 153 -1041 284 -1592 344 -373
41 -467 46 -905 46 -418 0 -439 -1 -540 -23 -262 -58 -513 -168 -793 -349
l-98 -63 -736 0 c-584 0 -734 3 -730 13 34 92 101 332 101 362 -1 47 -26 90
-63 110 -27 13 -485 116 -781 174 -630 125 -1272 215 -1785 251 -296 20 -299
20 -331 6z m471 -282 c464 -38 1050 -126 1660 -249 491 -100 525 -107 525
-120 0 -5 -255 -835 -567 -1842 l-567 -1833 -668 0 -668 0 0 2035 0 2034 48
-4 c26 -3 133 -12 237 -21z m10575 -2009 l0 -2035 -668 0 -668 0 -567 1833
c-312 1007 -567 1837 -567 1842 0 11 29 18 405 96 647 134 1276 231 1780 274
99 8 198 16 220 18 22 2 46 4 53 5 9 2 12 -411 12 -2033z m-4690 1531 c759
-65 1467 -218 2012 -436 l108 -43 24 -76 c13 -42 216 -697 451 -1456 l428
-1379 -24 -16 c-12 -8 -223 -138 -468 -287 l-446 -272 -29 32 c-16 17 -103
115 -194 217 -197 220 -815 841 -1027 1031 -469 421 -975 824 -1383 1102 -94
64 -132 72 -192 37 -76 -45 -198 -99 -260 -115 -47 -13 -119 -19 -254 -22
l-189 -5 -146 -142 c-268 -259 -455 -378 -665 -423 -123 -26 -275 1 -400 71
-94 52 -221 147 -245 181 -30 45 -51 117 -51 180 0 136 100 392 233 594 419
635 1175 1177 1732 1241 119 13 770 4 985 -14z m-2514 -568 c-349 -351 -573
-697 -667 -1028 -26 -95 -36 -281 -19 -363 19 -93 82 -208 146 -266 123 -113
328 -229 480 -273 114 -33 334 -33 449 0 213 61 447 212 698 452 l105 100 115
0 c176 0 330 33 472 100 l60 29 100 -72 c945 -672 1873 -1541 2665 -2497 165
-199 172 -208 195 -276 51 -148 -11 -334 -138 -419 -77 -51 -170 -71 -264 -58
-150 22 -152 24 -640 516 -1081 1091 -1058 1068 -1094 1076 -73 16 -138 -20
-160 -87 -26 -77 -44 -56 724 -833 392 -396 725 -739 740 -762 68 -101 76
-253 19 -369 -73 -150 -242 -238 -395 -208 -99 19 -145 47 -257 156 -58 56
-456 458 -885 893 -852 864 -813 830 -898 800 -73 -25 -111 -120 -74 -186 7
-12 334 -347 728 -745 659 -666 719 -730 750 -793 31 -64 34 -77 34 -160 0
-76 -4 -99 -27 -148 -35 -75 -113 -156 -185 -193 -53 -27 -67 -29 -163 -29
-170 0 -143 -21 -682 523 -1074 1084 -1313 1321 -1341 1328 -104 25 -196 -81
-154 -177 9 -21 311 -334 756 -784 659 -667 739 -751 723 -763 -30 -23 -170
-62 -257 -71 -358 -41 -839 173 -1408 626 -420 335 -989 897 -1587 1569 -204
228 -550 626 -590 677 l-21 27 438 1415 438 1415 606 0 607 0 -142 -142z"/>
</g>
</svg>
