<?xml version="1.0" standalone="no"?>
<!DOCTYPE svg PUBLIC "-//W3C//DTD SVG 20010904//EN"
 "http://www.w3.org/TR/2001/REC-SVG-20010904/DTD/svg10.dtd">
<svg version="1.0" xmlns="http://www.w3.org/2000/svg"
 width="1140.000000pt" height="1041.000000pt" viewBox="0 0 1140.000000 1041.000000"
 preserveAspectRatio="xMidYMid meet">
<metadata>
Created by potrace 1.16, written by Peter Selinger 2001-2019
</metadata>
<g transform="translate(0.000000,1041.000000) scale(0.100000,-0.100000)"
fill="#000000" stroke="none">
<path d="M1035 10399 c-172 -25 -400 -121 -542 -228 -246 -185 -416 -461 -468
-759 -20 -118 -20 -246 1 -282 38 -64 -33 -60 1108 -60 l1036 0 3 -4017 c3
-3731 4 -4023 20 -4085 62 -249 166 -438 332 -603 136 -136 294 -235 473 -295
192 -64 -71 -60 3779 -60 2438 0 3525 3 3579 11 256 35 520 172 700 361 123
130 219 287 274 448 55 164 78 401 44 460 -38 64 33 60 -1108 60 l-1036 0 -3
4018 c-3 3752 -4 4022 -20 4085 -26 103 -63 210 -98 280 -145 289 -404 515
-707 617 -192 64 74 60 -3792 59 -1933 -1 -3542 -5 -3575 -10z m393 -274 c249
-61 476 -226 606 -443 47 -78 107 -236 120 -314 l7 -38 -941 0 c-779 0 -940 2
-940 13 0 38 44 178 79 253 134 285 387 480 699 539 93 18 278 13 370 -10z
m6745 10 c374 -65 667 -338 769 -717 l23 -83 2 -3992 3 -3993 -2272 0 c-2262
0 -2273 0 -2306 -20 -44 -27 -58 -66 -65 -175 -16 -255 -150 -510 -351 -671
-378 -302 -899 -279 -1248 55 -132 125 -220 277 -270 463 l-23 83 -5 4150 c-5
3869 -7 4155 -23 4218 -63 251 -164 435 -334 605 l-92 92 3053 0 c2662 0 3064
-2 3139 -15z m2947 -9058 c0 -38 -44 -178 -79 -253 -111 -236 -311 -417 -552
-499 -170 -58 26 -55 -3295 -55 l-3054 0 76 72 c85 81 172 192 227 290 69 123
104 230 143 436 l4 22 3265 0 c2722 0 3265 -2 3265 -13z"/>
<path d="M3694 7916 c-51 -22 -74 -61 -74 -122 0 -44 5 -59 28 -84 16 -19 43
-35 67 -40 53 -12 4007 -13 4059 0 112 25 141 173 48 237 -26 17 -117 18
-2062 20 -1689 2 -2040 0 -2066 -11z"/>
<path d="M3694 6346 c-51 -22 -74 -61 -74 -124 0 -50 3 -58 36 -88 l35 -34
2053 0 2053 0 27 21 c78 61 70 175 -15 221 -32 17 -116 18 -2059 18 -1672 -1
-2030 -3 -2056 -14z"/>
<path d="M3684 4771 c-18 -11 -39 -30 -48 -42 -21 -31 -21 -112 0 -145 38 -58
-106 -54 2117 -54 l2044 0 27 21 c58 45 71 125 31 185 -37 57 89 54 -2112 54
-1979 0 -2029 -1 -2059 -19z"/>
<path d="M7710 3441 c-14 -5 -253 -159 -531 -343 l-506 -335 -7 66 c-3 36 -6
93 -6 127 0 118 -43 204 -121 244 -45 24 -153 26 -211 6 -72 -26 -1054 -549
-1083 -577 -27 -26 -30 -36 -30 -89 0 -54 3 -63 33 -92 29 -30 38 -33 90 -32
55 0 74 9 557 266 l500 266 6 -101 c4 -56 7 -157 8 -225 1 -135 12 -175 56
-210 20 -16 42 -22 75 -22 45 0 63 10 282 153 601 395 1005 667 1026 690 55
59 32 164 -42 198 -44 20 -58 21 -96 10z"/>
</g>
</svg>
