<?xml version="1.0" standalone="no"?>
<!DOCTYPE svg PUBLIC "-//W3C//DTD SVG 20010904//EN"
 "http://www.w3.org/TR/2001/REC-SVG-20010904/DTD/svg10.dtd">
<svg version="1.0" xmlns="http://www.w3.org/2000/svg"
 width="893.000000pt" height="858.000000pt" viewBox="0 0 893.000000 858.000000"
 preserveAspectRatio="xMidYMid meet">
<metadata>
Created by potrace 1.16, written by Peter Selinger 2001-2019
</metadata>
<g transform="translate(0.000000,858.000000) scale(0.100000,-0.100000)"
fill="#000000" stroke="none">
<path d="M2457 8529 c-109 -26 -209 -109 -260 -217 l-32 -67 -3 -242 -3 -243
-922 -2 -922 -3 -67 -32 c-37 -17 -88 -52 -113 -78 -26 -25 -61 -76 -78 -113
l-32 -67 0 -2165 0 -2165 31 -65 c53 -111 141 -184 259 -214 52 -14 277 -16
1987 -16 1060 0 1928 -2 1928 -5 0 -3 -75 -173 -166 -377 -92 -205 -172 -391
-179 -413 -9 -29 -10 -68 -4 -143 31 -404 266 -702 646 -819 82 -25 100 -27
268 -27 167 0 187 2 268 27 158 49 287 126 395 236 156 160 252 404 252 642
l0 78 -381 858 c-209 472 -383 864 -386 871 -4 9 101 12 506 12 l511 0 -2
-1426 -3 -1426 -63 -24 c-182 -68 -381 -201 -516 -344 -129 -138 -266 -363
-266 -439 0 -24 9 -42 34 -67 l34 -34 1206 2 1206 3 25 26 c41 41 43 86 6 166
-49 104 -153 253 -243 348 -137 145 -291 250 -478 326 l-95 38 -3 1426 -2
1425 511 0 c405 0 510 -3 506 -12 -3 -7 -177 -400 -387 -873 l-382 -860 5
-120 c18 -413 265 -725 662 -838 101 -29 325 -35 436 -12 175 35 316 107 440
223 94 88 136 143 189 249 57 115 90 244 97 383 l5 115 -386 868 c-212 477
-386 869 -386 872 0 3 70 5 156 5 87 0 164 4 175 10 46 25 49 48 49 394 0 231
-3 333 -12 351 -25 56 -15 55 -677 55 l-611 0 -2 1438 -3 1437 -31 65 c-39 83
-111 155 -194 194 l-65 31 -922 3 -922 3 -3 237 c-3 222 -5 241 -27 297 -33
83 -133 183 -216 216 l-60 24 -1125 2 c-632 0 -1141 -3 -1163 -8z m2260 -220
c15 -5 41 -22 57 -37 52 -49 56 -73 56 -302 l0 -210 -1225 0 -1225 0 0 215 c0
234 2 245 57 297 15 15 39 31 53 37 36 14 2189 15 2227 0z m2149 -785 c18 -9
38 -22 44 -29 8 -10 -51 -240 -235 -917 -136 -496 -256 -917 -266 -935 -11
-18 -37 -42 -57 -55 l-37 -23 -951 -3 -951 -2 -5 107 c-8 147 -31 208 -112
289 -43 43 -79 68 -121 85 l-60 24 -510 0 -510 0 -57 -23 c-33 -13 -82 -45
-114 -74 -90 -82 -124 -173 -124 -329 l0 -79 -952 2 -953 3 -37 23 c-20 13
-46 38 -57 55 -23 38 -514 1824 -507 1844 3 7 20 22 38 33 33 20 50 20 3266
20 2937 0 3237 -1 3268 -16z m-6461 -1304 c109 -402 175 -626 196 -667 51
-103 149 -177 267 -202 37 -8 335 -11 991 -11 l938 0 5 -112 c3 -95 8 -122 30
-170 35 -75 104 -147 175 -184 l58 -29 535 0 535 0 56 26 c148 70 218 201 219
411 l0 58 968 2 967 3 58 24 c33 13 81 42 109 65 96 79 101 93 278 741 89 325
165 601 170 615 5 14 9 -446 9 -1087 l1 -1113 -89 0 -88 0 -12 58 c-23 116
-111 226 -226 283 -125 61 -294 49 -410 -31 -91 -62 -158 -166 -171 -262 l-7
-48 -819 0 -820 0 -29 -29 -29 -29 0 -347 0 -347 29 -29 29 -29 162 0 c97 0
160 -4 158 -9 -1 -6 -73 -167 -158 -360 l-155 -351 -1979 0 -1980 0 -43 21
c-30 15 -52 35 -71 67 l-27 47 -2 1825 c-1 1004 0 1821 3 1815 2 -5 78 -282
169 -615z m3719 -404 c63 -48 66 -63 66 -366 0 -253 -1 -273 -20 -311 -12 -22
-35 -49 -53 -59 -31 -19 -53 -20 -513 -20 l-481 0 -33 23 c-67 45 -70 60 -70
365 0 210 3 280 14 306 14 35 66 80 101 89 11 3 230 4 486 4 l466 -2 37 -29z
m2344 -1085 c20 -10 44 -27 53 -37 20 -22 49 -79 49 -94 0 -6 -64 -10 -190
-10 -208 0 -206 0 -176 58 47 91 172 130 264 83z m1812 -551 l0 -190 -1900 0
-1900 0 0 190 0 190 1900 0 1900 0 0 -190z m-1700 -1797 l0 -1398 -200 0 -200
0 0 1398 0 1397 200 0 200 0 0 -1397z m-1451 427 l309 -695 -636 -3 c-349 -1
-637 0 -640 3 -3 2 139 328 314 724 303 684 320 719 332 693 7 -15 151 -340
321 -722z m3469 -695 c-3 -3 -291 -4 -640 -3 l-636 3 321 722 321 722 319
-720 c176 -396 317 -722 315 -724z m-3114 -267 c-10 -66 -52 -187 -87 -248
-17 -30 -67 -92 -111 -136 -134 -134 -293 -198 -496 -197 -121 0 -200 17 -308
68 -206 97 -332 272 -376 523 l-5 32 694 0 695 0 -6 -42z m3170 5 c-41 -228
-177 -418 -364 -510 -114 -57 -201 -77 -330 -76 -273 0 -512 146 -623 381 -28
60 -66 188 -67 225 0 16 40 17 695 17 l696 0 -7 -37z m-2159 -1083 c245 -28
474 -130 659 -293 61 -54 196 -212 196 -229 0 -4 -436 -8 -970 -8 -533 0 -970
4 -970 8 0 17 135 175 196 229 208 184 483 293 759 302 22 0 81 -4 130 -9z"/>
</g>
</svg>
