<svg width="19" height="27" viewBox="0 0 19 27" fill="none" xmlns="http://www.w3.org/2000/svg">
<path d="M9.5 25.8614C9.26019 25.5816 8.95259 25.2165 8.59675 24.7804C7.71582 23.7007 6.54251 22.1895 5.37069 20.4618C4.19742 18.732 3.03501 16.7989 2.16822 14.8742C1.29697 12.9397 0.75 11.0693 0.75 9.45C0.75 4.64344 4.65833 0.75 9.5 0.75C14.3417 0.75 18.25 4.64344 18.25 9.45C18.25 11.0693 17.703 12.9397 16.8318 14.8742C15.965 16.7989 14.8026 18.732 13.6293 20.4618C12.4575 22.1895 11.2842 23.7007 10.4033 24.7804C10.0474 25.2165 9.73981 25.5816 9.5 25.8614ZM5.35714 9.45C5.35714 11.7309 7.21667 13.575 9.5 13.575C11.7833 13.575 13.6429 11.7309 13.6429 9.45C13.6429 7.16906 11.7833 5.325 9.5 5.325C7.21667 5.325 5.35714 7.16906 5.35714 9.45Z" stroke="#02275c" stroke-width="1.5"/>
</svg>
