<?xml version="1.0" standalone="no"?>
<!DOCTYPE svg PUBLIC "-//W3C//DTD SVG 20010904//EN"
 "http://www.w3.org/TR/2001/REC-SVG-20010904/DTD/svg10.dtd">
<svg version="1.0" xmlns="http://www.w3.org/2000/svg"
 width="1140.000000pt" height="1108.000000pt" viewBox="0 0 1140.000000 1108.000000"
 preserveAspectRatio="xMidYMid meet">
<metadata>
Created by potrace 1.16, written by Peter Selinger 2001-2019
</metadata>
<g transform="translate(0.000000,1108.000000) scale(0.100000,-0.100000)"
fill="#000000" stroke="none">
<path d="M5665 11063 c-26 -7 226 186 -2855 -2171 -1499 -1146 -2742 -2101
-2762 -2122 -33 -34 -38 -45 -38 -87 1 -57 16 -87 56 -114 28 -18 52 -19 542
-19 l512 0 0 -3224 0 -3223 23 -34 c13 -19 38 -39 57 -46 51 -17 8949 -17
9000 0 19 7 44 27 57 46 l23 34 0 3223 0 3224 510 0 c561 0 554 -1 585 60 8
16 15 50 15 75 0 39 -5 51 -37 85 -28 29 -5082 3902 -5523 4232 -74 55 -120
73 -165 61z m2627 -2278 l2574 -1970 -381 -5 c-347 -5 -383 -7 -409 -23 -60
-40 -56 205 -56 -3297 l0 -3210 -4320 0 -4320 0 0 3210 c0 3502 4 3257 -56
3297 -26 16 -62 18 -409 23 l-381 5 2576 1972 c1416 1085 2582 1971 2591 1970
9 -1 1175 -888 2591 -1972z"/>
<path d="M3799 5859 c-139 -22 -237 -129 -247 -270 -6 -86 11 -148 55 -206
l34 -45 -292 -919 -292 -919 -76 -1 c-42 0 -92 -5 -111 -12 -94 -32 -108 -175
-23 -233 27 -18 62 -19 1003 -19 916 0 978 1 1003 18 40 26 59 61 59 111 2 91
-47 129 -176 134 l-91 4 -291 916 -290 915 30 48 31 48 662 0 661 1 22 -36
c13 -19 40 -47 61 -61 l39 -26 0 -1318 0 -1319 -202 0 c-144 0 -221 -5 -266
-15 -224 -53 -416 -241 -477 -470 -9 -33 -19 -117 -22 -186 l-6 -126 -98 -5
c-108 -5 -137 -17 -169 -71 -40 -64 -15 -143 54 -177 42 -20 54 -20 1316 -20
1262 0 1274 0 1316 20 69 34 94 113 54 177 -32 54 -61 66 -171 71 l-99 5 0 91
c-1 293 -125 513 -357 634 -120 62 -174 72 -410 72 l-203 0 0 1319 0 1319 36
22 c19 13 47 40 61 61 l26 39 661 -1 661 0 31 -48 31 -48 -291 -916 -291 -915
-91 -4 c-129 -5 -178 -43 -176 -134 0 -50 19 -85 59 -111 25 -17 87 -18 1003
-18 787 0 979 3 998 13 61 35 80 132 39 193 -29 43 -71 58 -168 58 l-76 1
-292 919 -292 919 35 47 c45 58 59 112 54 201 -10 160 -132 275 -292 276 -111
1 -206 -47 -255 -128 l-26 -43 -662 -1 -661 0 -21 34 c-12 19 -37 46 -56 60
-125 96 -328 65 -406 -60 l-21 -34 -658 0 -659 0 -31 45 c-65 95 -182 143
-301 124z m58 -2357 c-281 -1 -512 0 -515 2 -3 4 466 1498 504 1606 3 8 121
-349 263 -795 l258 -810 -510 -3z m3952 807 c139 -440 251 -802 249 -805 -3
-2 -234 -3 -515 -2 l-510 3 255 803 c141 441 258 802 261 802 3 0 120 -360
260 -801z m-1508 -1936 c85 -42 154 -111 193 -193 28 -60 31 -75 34 -187 l4
-123 -832 0 -832 0 4 123 c3 112 5 127 34 187 48 101 141 182 247 216 33 10
152 13 562 11 l520 -2 66 -32z"/>
</g>
</svg>
