<svg width="21" height="21" viewBox="0 0 21 21" fill="none" xmlns="http://www.w3.org/2000/svg">
<path d="M4.68336 0.203674C4.26913 0.203674 3.85966 0.354159 3.51908 0.623448L3.47156 0.649585L3.44622 0.673346L0.971137 3.22367L0.994898 3.24743C0.232177 3.95392 -0.00543122 5.0089 0.326428 5.92131C0.328012 5.92527 0.324844 5.94032 0.326428 5.94507C0.997274 7.86811 2.71597 11.5764 6.06862 14.9298C9.43473 18.2959 13.1945 19.9433 15.0534 20.672H15.0771C15.5433 20.8257 16.0414 20.8563 16.5229 20.7609C17.0045 20.6654 17.4531 20.4471 17.8254 20.1271L17.8492 20.1033L17.8746 20.078L20.3267 17.6282C20.984 16.9709 20.984 15.8351 20.3267 15.1777L17.1095 11.9605L17.0841 11.9106C16.4267 11.2532 15.2664 11.2532 14.609 11.9106L14.5853 11.936L13.025 13.4962C11.8361 12.925 10.7426 12.1735 9.78322 11.2683C8.48746 10.0303 7.82375 8.60707 7.58139 8.04948L9.16385 6.46543C9.83074 5.79855 9.84104 4.69446 9.14009 4.04025L9.16385 4.0149L9.0902 3.94125L5.92209 0.673346L5.89595 0.649585L5.84685 0.623448C5.51728 0.356092 5.10693 0.208142 4.68257 0.203674H4.68336ZM4.68336 1.78773C4.74197 1.78773 4.79979 1.81624 4.85761 1.86218L8.02571 5.10394L8.07482 5.15384L8.09858 5.1776C8.09303 5.17364 8.1461 5.25442 8.04947 5.35184L6.06941 7.33191L5.69716 7.67882L5.8714 8.17304C5.8714 8.17304 6.78223 10.6069 8.69339 12.431L8.86526 12.5791C10.7059 14.2598 12.8761 15.1769 12.8761 15.1769L13.3711 15.4003L13.7433 15.0296L15.7234 13.0495C15.8581 12.9149 15.8343 12.9149 15.9689 13.0495L19.2123 16.2913C19.3469 16.426 19.3469 16.3784 19.2123 16.5131L16.7863 18.9391C16.422 19.2527 16.0363 19.3161 15.5745 19.1624C13.7782 18.4575 10.2917 16.9233 7.183 13.8162C4.05053 10.6822 2.41342 7.12598 1.81306 5.40174C1.69188 5.07939 1.779 4.60179 2.06017 4.36181L2.08393 4.33805L2.10928 4.31191L4.5107 1.86218C4.55783 1.8185 4.61847 1.79223 4.68257 1.78773H4.68336Z" fill="#02275c"/>
</svg>
